HIERARCHY
ROOT Hips
{
	OFFSET 0.000000 83.214638 0.000000
	CHANNELS 6 Xposition Yposition Zposition Xrotation Yrotation Zrotation
	JOINT Pelvis
	{
		OFFSET 0.000000 0.000000 0.000000
		CHANNELS 3 Xrotation Yrotation Zrotation
		JOINT LeftUpLeg
		{
			OFFSET 8.479700 -4.795502 -0.379100
			CHANNELS 3 Xrotation Yrotation Zrotation
			JOINT LeftLeg
			{
				OFFSET 0.024144 -32.555107 0.112900
				CHANNELS 3 Xrotation Yrotation Zrotation
				JOINT LeftFoot
				{
					OFFSET -0.024144 -32.638630 -3.012600
					CHANNELS 3 Xrotation Yrotation Zrotation
					JOINT LeftToeBase
					{
						OFFSET 0.970200 -13.225400 11.864200
						CHANNELS 3 Xrotation Yrotation Zrotation
						End Site
						{
							OFFSET 0.000000 12.319262 0.000000
						}
					}
					JOINT LFootTongue
					{
						OFFSET 1.142400 -1.059800 6.665200
						CHANNELS 3 Xrotation Yrotation Zrotation
						End Site
						{
							OFFSET 0.000000 12.319262 0.000000
						}
					}
				}
				JOINT LeftPantLeg
				{
					OFFSET 0.918482 -16.533964 -2.284700
					CHANNELS 3 Xrotation Yrotation Zrotation
					End Site
					{
						OFFSET 0.350399 24.744368 0.000000
					}
				}
			}
		}
		JOINT RightUpLeg
		{
			OFFSET -8.479700 -4.795502 -0.379100
			CHANNELS 3 Xrotation Yrotation Zrotation
			JOINT RightLeg
			{
				OFFSET -0.023144 -32.555092 0.112900
				CHANNELS 3 Xrotation Yrotation Zrotation
				JOINT RightFoot
				{
					OFFSET 0.023144 -32.638641 -3.012700
					CHANNELS 3 Xrotation Yrotation Zrotation
					JOINT RightToeBase
					{
						OFFSET -0.970200 -13.225400 11.864200
						CHANNELS 3 Xrotation Yrotation Zrotation
						End Site
						{
							OFFSET 0.000000 12.319244 0.000000
						}
					}
					JOINT RFootTongue
					{
						OFFSET -1.142200 -1.059800 6.665200
						CHANNELS 3 Xrotation Yrotation Zrotation
						End Site
						{
							OFFSET 0.000000 12.319243 0.000000
						}
					}
				}
				JOINT RightPantLeg
				{
					OFFSET -0.919482 -16.533978 -2.284800
					CHANNELS 3 Xrotation Yrotation Zrotation
					End Site
					{
						OFFSET -0.350400 24.744419 0.000000
					}
				}
			}
		}
	}
	JOINT Spine
	{
		OFFSET 0.000000 7.722000 1.166200
		CHANNELS 3 Xrotation Yrotation Zrotation
		JOINT Spine1
		{
			OFFSET 0.000000 12.024101 0.248800
			CHANNELS 3 Xrotation Yrotation Zrotation
			JOINT Spine2
			{
				OFFSET 0.000000 11.502998 -0.491200
				CHANNELS 3 Xrotation Yrotation Zrotation
				JOINT Neck
				{
					OFFSET 0.000000 18.430702 -3.123100
					CHANNELS 3 Xrotation Yrotation Zrotation
					JOINT Head
					{
						OFFSET 0.000000 9.051102 1.034000
						CHANNELS 3 Xrotation Yrotation Zrotation
						JOINT HairB
						{
							OFFSET 0.208400 24.786102 24.822300
							CHANNELS 3 Xrotation Yrotation Zrotation
							End Site
							{
								OFFSET 0.000000 32.263779 0.000000
							}
						}
						JOINT HairA
						{
							OFFSET -7.081100 24.428299 23.196600
							CHANNELS 3 Xrotation Yrotation Zrotation
							End Site
							{
								OFFSET 0.000000 32.263779 0.000000
							}
						}
						JOINT Hat
						{
							OFFSET 16.728800 15.048294 -15.439601
							CHANNELS 3 Xrotation Yrotation Zrotation
							End Site
							{
								OFFSET 0.000000 32.263779 0.000000
							}
						}
					}
				}
				JOINT LeftShoulder
				{
					OFFSET 6.197800 13.665199 -4.064700
					CHANNELS 3 Xrotation Yrotation Zrotation
					JOINT LeftArm
					{
						OFFSET 7.778100 -0.187103 -1.709300
						CHANNELS 3 Xrotation Yrotation Zrotation
						JOINT LeftForeArm
						{
							OFFSET 22.049376 0.000000 0.000000
							CHANNELS 3 Xrotation Yrotation Zrotation
							JOINT LeftHand
							{
								OFFSET 23.009392 0.000000 0.000000
								CHANNELS 3 Xrotation Yrotation Zrotation
								JOINT LeftHandThumb1
								{
									OFFSET 3.507191 -2.063065 3.133727
									CHANNELS 3 Xrotation Yrotation Zrotation
									JOINT LeftHandThumb2
									{
										OFFSET 3.101337 -1.790558 1.790558
										CHANNELS 3 Xrotation Yrotation Zrotation
										JOINT LeftHandThumb3
										{
											OFFSET 3.058640 -1.765907 1.765906
											CHANNELS 3 Xrotation Yrotation Zrotation
											End Site
											{
												OFFSET -0.415260 3.926476 -0.049563
											}
										}
									}
								}
								JOINT LeftHandIndex1
								{
									OFFSET 11.334419 -0.901459 3.706815
									CHANNELS 3 Xrotation Yrotation Zrotation
									JOINT LeftHandIndex2
									{
										OFFSET 3.283112 0.000000 0.000000
										CHANNELS 3 Xrotation Yrotation Zrotation
										JOINT LeftHandIndex3
										{
											OFFSET 3.323853 0.000000 0.000000
											CHANNELS 3 Xrotation Yrotation Zrotation
											End Site
											{
												OFFSET -1.135597 3.097809 0.402452
											}
										}
									}
								}
								JOINT LeftHandMiddle1
								{
									OFFSET 11.335861 0.000000 0.000000
									CHANNELS 3 Xrotation Yrotation Zrotation
									JOINT LeftHandMiddle2
									{
										OFFSET 3.410492 0.000000 0.000000
										CHANNELS 3 Xrotation Yrotation Zrotation
										JOINT LeftHandMiddle3
										{
											OFFSET 3.312172 0.000000 0.000000
											CHANNELS 3 Xrotation Yrotation Zrotation
											End Site
											{
												OFFSET -1.150200 3.080154 0.400270
											}
										}
									}
								}
								JOINT LeftHandRing1
								{
									OFFSET 11.514786 -0.013176 -3.003090
									CHANNELS 3 Xrotation Yrotation Zrotation
									JOINT LeftHandRing2
									{
										OFFSET 3.053307 0.000000 0.000000
										CHANNELS 3 Xrotation Yrotation Zrotation
										JOINT LeftHandRing3
										{
											OFFSET 3.295807 0.000000 0.000000
											CHANNELS 3 Xrotation Yrotation Zrotation
											End Site
											{
												OFFSET -1.281006 3.013344 0.375733
											}
										}
									}
								}
								JOINT LeftHandPinky1
								{
									OFFSET 10.518692 -0.960396 -5.730441
									CHANNELS 3 Xrotation Yrotation Zrotation
									JOINT LeftHandPinky2
									{
										OFFSET 2.861649 0.000000 0.000000
										CHANNELS 3 Xrotation Yrotation Zrotation
										JOINT LeftHandPinky3
										{
											OFFSET 2.863380 0.000000 0.000000
											CHANNELS 3 Xrotation Yrotation Zrotation
											End Site
											{
												OFFSET -0.843597 2.711159 0.369971
											}
										}
									}
								}
							}
							JOINT LSleeve
							{
								OFFSET 6.676277 -0.344902 -1.011730
								CHANNELS 3 Xrotation Yrotation Zrotation
								End Site
								{
									OFFSET 0.000000 14.885353 0.000000
								}
							}
						}
					}
				}
				JOINT RightShoulder
				{
					OFFSET -6.197800 13.665199 -4.064700
					CHANNELS 3 Xrotation Yrotation Zrotation
					JOINT RightArm
					{
						OFFSET -7.778100 -0.187103 -1.709300
						CHANNELS 3 Xrotation Yrotation Zrotation
						JOINT RightForeArm
						{
							OFFSET -22.049376 0.000000 0.000000
							CHANNELS 3 Xrotation Yrotation Zrotation
							JOINT RightHand
							{
								OFFSET -23.009392 0.000000 0.000000
								CHANNELS 3 Xrotation Yrotation Zrotation
								JOINT RightHandThumb1
								{
									OFFSET -3.507191 -2.063065 3.133727
									CHANNELS 3 Xrotation Yrotation Zrotation
									JOINT RightHandThumb2
									{
										OFFSET -3.101337 -1.790558 1.790558
										CHANNELS 3 Xrotation Yrotation Zrotation
										JOINT RightHandThumb3
										{
											OFFSET -3.058640 -1.765907 1.765906
											CHANNELS 3 Xrotation Yrotation Zrotation
											End Site
											{
												OFFSET 0.415260 3.926476 -0.049563
											}
										}
									}
								}
								JOINT RightHandIndex1
								{
									OFFSET -11.334419 -0.901459 3.706815
									CHANNELS 3 Xrotation Yrotation Zrotation
									JOINT RightHandIndex2
									{
										OFFSET -3.283112 0.000000 0.000000
										CHANNELS 3 Xrotation Yrotation Zrotation
										JOINT RightHandIndex3
										{
											OFFSET -3.323853 0.000000 0.000000
											CHANNELS 3 Xrotation Yrotation Zrotation
											End Site
											{
												OFFSET 1.135597 3.097809 0.402452
											}
										}
									}
								}
								JOINT RightHandMiddle1
								{
									OFFSET -11.335861 0.000000 0.000000
									CHANNELS 3 Xrotation Yrotation Zrotation
									JOINT RightHandMiddle2
									{
										OFFSET -3.410492 0.000000 0.000000
										CHANNELS 3 Xrotation Yrotation Zrotation
										JOINT RightHandMiddle3
										{
											OFFSET -3.312172 0.000000 0.000000
											CHANNELS 3 Xrotation Yrotation Zrotation
											End Site
											{
												OFFSET 1.150200 3.080154 0.400270
											}
										}
									}
								}
								JOINT RightHandRing1
								{
									OFFSET -11.514786 -0.013176 -3.003090
									CHANNELS 3 Xrotation Yrotation Zrotation
									JOINT RightHandRing2
									{
										OFFSET -3.053307 0.000000 0.000000
										CHANNELS 3 Xrotation Yrotation Zrotation
										JOINT RightHandRing3
										{
											OFFSET -3.295807 0.000000 0.000000
											CHANNELS 3 Xrotation Yrotation Zrotation
											End Site
											{
												OFFSET 1.281006 3.013344 0.375733
											}
										}
									}
								}
								JOINT RightHandPinky1
								{
									OFFSET -10.518692 -0.960396 -5.730441
									CHANNELS 3 Xrotation Yrotation Zrotation
									JOINT RightHandPinky2
									{
										OFFSET -2.861649 0.000000 0.000000
										CHANNELS 3 Xrotation Yrotation Zrotation
										JOINT RightHandPinky3
										{
											OFFSET -2.863380 0.000000 0.000000
											CHANNELS 3 Xrotation Yrotation Zrotation
											End Site
											{
												OFFSET 0.843597 2.711159 0.369971
											}
										}
									}
								}
							}
							JOINT RSleeve
							{
								OFFSET -6.676277 -0.344902 -1.011730
								CHANNELS 3 Xrotation Yrotation Zrotation
								End Site
								{
									OFFSET 0.000000 14.885353 0.000000
								}
							}
						}
					}
				}
				JOINT Backpack
				{
					OFFSET 0.000000 -2.471497 36.677502
					CHANNELS 3 Xrotation Yrotation Zrotation
					End Site
					{
						OFFSET 0.000000 20.427315 0.000000
					}
				}
				JOINT Hood
				{
					OFFSET 0.000000 18.754097 -10.431000
					CHANNELS 3 Xrotation Yrotation Zrotation
					JOINT Hood1
					{
						OFFSET 0.000000 -5.011002 -7.685901
						CHANNELS 3 Xrotation Yrotation Zrotation
						End Site
						{
							OFFSET 0.000000 9.175140 0.000000
						}
					}
				}
				JOINT LHoodieString
				{
					OFFSET 5.250500 16.397697 3.089900
					CHANNELS 3 Xrotation Yrotation Zrotation
					JOINT LHoodieString1
					{
						OFFSET 0.257700 -6.364304 3.694600
						CHANNELS 3 Xrotation Yrotation Zrotation
						JOINT LHoodieString2
						{
							OFFSET 0.000000 -9.643799 2.679100
							CHANNELS 3 Xrotation Yrotation Zrotation
							End Site
							{
								OFFSET 0.000000 10.009018 0.000000
							}
						}
					}
				}
				JOINT RHoodieString
				{
					OFFSET -5.250500 16.397697 3.089900
					CHANNELS 3 Xrotation Yrotation Zrotation
					JOINT RHoodieString1
					{
						OFFSET -0.257700 -6.364304 3.694600
						CHANNELS 3 Xrotation Yrotation Zrotation
						JOINT RHoodieString2
						{
							OFFSET 0.000000 -9.643799 2.679100
							CHANNELS 3 Xrotation Yrotation Zrotation
							End Site
							{
								OFFSET 0.000000 10.009018 0.000000
							}
						}
					}
				}
			}
			JOINT LBackpack_Strap
			{
				OFFSET 15.223200 -7.719803 -6.610900
				CHANNELS 3 Xrotation Yrotation Zrotation
				End Site
				{
					OFFSET 0.000000 16.040596 0.000000
				}
			}
			JOINT RBackpack_Strap
			{
				OFFSET -15.223000 -7.719803 -6.610900
				CHANNELS 3 Xrotation Yrotation Zrotation
				End Site
				{
					OFFSET 0.000000 16.040596 0.000000
				}
			}
		}
	}
	JOINT BoyFacialAnim_Joint
	{
		OFFSET 1.000000 -82.208099 -1.550900
		CHANNELS 3 Xrotation Yrotation Zrotation
		End Site
		{
			OFFSET 0.000000 30.012791 0.000000
		}
	}
}
MOTION
Frames: 4
Frame Time: 0.033333
-0.493443 81.466293 0.661786 -7.403397 0.411296 -0.287908 0.000000 -0.000000 0.000000 -6.138394 7.455188 4.000121 24.506077 7.850128 2.269306 -15.035963 0.937371 -5.491156 0.000000 -0.000000 -0.000000 0.000000 -0.000000 0.000000 -0.000001 -0.000000 0.000001 -5.387415 -5.781411 -1.636139 24.961119 -9.966054 -0.484239 -17.245811 -0.682842 3.178999 -0.000001 0.000000 -0.000000 -0.000001 0.000000 -0.000000 -0.000000 0.000001 0.000000 1.337193 -0.157447 0.083273 2.667321 -0.328053 0.232735 2.667096 -0.330060 0.232831 4.720834 -0.474547 0.686195 4.576225 -1.379105 -0.564683 -0.000000 0.000000 -0.000000 -0.000000 0.000000 -0.000000 -0.000000 0.000000 -0.000000 1.501426 -15.124962 -0.830123 -29.101862 -20.165855 -63.840357 0.000006 -19.463271 0.000001 21.494691 0.195920 -15.732624 1.173132 8.050004 3.738759 8.582813 24.775418 -2.821517 0.000001 0.000002 -0.000001 -2.583469 -1.556209 -35.168344 0.963956 3.518673 -30.632408 -0.000001 0.000001 -0.000002 0.847781 3.328244 -31.236258 1.251758 3.963688 -35.040872 -0.000000 0.000002 0.000000 4.038910 7.514870 -38.001612 0.473582 2.513926 -21.334246 0.000001 -0.000003 -0.000001 4.795612 8.167895 -40.146298 0.056240 -3.103679 -8.413710 -0.000002 0.000000 0.000002 0.000000 -0.000002 0.000002 2.033976 9.759203 7.893679 -23.632972 51.607410 46.340870 -0.000010 9.102608 0.000006 -2.528719 2.586233 4.462430 -8.209200 -8.109368 -5.492219 12.519152 -27.844139 1.514416 0.000002 0.000001 -0.000002 0.127239 -2.200406 32.013247 0.851801 -3.339660 28.609149 -0.000002 0.000001 0.000000 2.577034 -6.757865 26.585586 0.596202 -2.821763 23.856319 -0.000001 0.000000 -0.000002 2.746275 -6.948504 27.455272 0.368863 -2.238751 18.710555 -0.000004 0.000001 0.000008 3.003850 -7.528283 26.933579 0.627049 -2.890414 24.475510 -0.000000 -0.000002 0.000002 -0.000002 0.000001 -0.000001 -0.000000 0.000000 -0.000000 -0.000000 0.000000 -0.000000 -0.000000 0.000000 -0.000000 -0.000000 0.000000 -0.000000 -0.000000 0.000000 -0.000000 -0.000000 0.000000 0.000000 -0.000000 0.000000 -0.000000 -0.000000 0.000000 -0.000000 -0.000000 0.000000 0.000000 0.000000 0.000000 -0.000000 0.000000 0.000000 -0.000000 0.000000 -0.000000 0.000000 
-0.520665 81.462364 0.772744 -7.560897 0.420895 -0.300945 -0.000000 -0.000000 0.000000 -5.891848 7.522128 4.054644 24.510848 7.847825 2.254107 -15.116153 0.948854 -5.522484 -0.000000 0.000002 -0.000000 -0.000000 0.000002 0.000000 0.000000 0.000001 -0.000000 -5.091919 -5.820212 -1.608802 24.892665 -9.925447 -0.477344 -17.233334 -0.679926 3.170028 -0.000000 -0.000001 -0.000000 -0.000000 -0.000001 -0.000000 0.000001 0.000002 0.000000 1.306628 -0.149501 0.085657 2.598095 -0.312088 0.230060 2.597864 -0.314142 0.230199 4.747222 -0.470066 0.655019 5.063906 -1.374858 -0.606810 0.000001 -0.000000 0.000000 0.000001 -0.000000 0.000000 0.000001 -0.000000 0.000000 1.515929 -15.127045 -0.698543 -28.923857 -19.874942 -63.799445 -0.000004 -19.453531 -0.000005 21.385237 0.297081 -15.675527 1.187402 8.035695 3.427752 8.650788 24.960315 -2.870292 0.000002 -0.000003 0.000002 -2.526044 -1.452301 -35.265271 0.961054 3.513808 -30.585198 0.000001 -0.000002 -0.000002 0.873851 3.370836 -31.196025 1.251869 3.963872 -35.042815 0.000001 0.000000 0.000000 4.065288 7.548211 -38.001018 0.473571 2.513873 -21.333867 -0.000000 0.000002 -0.000004 4.763047 8.137769 -40.084956 0.055802 -3.106560 -8.389506 -0.000000 0.000001 0.000003 0.000001 -0.000001 0.000002 2.053972 9.919552 7.794299 -23.716975 51.644078 45.964800 0.000008 9.356112 0.000000 -2.123995 2.598310 4.482043 -8.214461 -8.098057 -5.561400 12.518534 -27.842803 1.514228 -0.000001 -0.000002 -0.000002 0.136132 -2.209813 31.927805 0.852999 -3.341914 28.630246 -0.000003 -0.000000 0.000002 2.573621 -6.750947 26.586880 0.597034 -2.823655 23.873383 0.000000 0.000002 -0.000003 2.743660 -6.942747 27.460793 0.369073 -2.239288 18.715198 -0.000000 -0.000000 0.000002 2.982471 -7.489045 26.922936 0.628753 -2.894135 24.508814 -0.000000 -0.000000 0.000000 -0.000005 -0.000000 0.000001 0.000000 0.000000 -0.000000 0.000000 0.000000 -0.000000 0.000000 0.000000 -0.000000 0.000000 0.000000 -0.000000 0.000000 0.000000 -0.000000 0.000000 0.000000 -0.000000 0.000000 0.000000 -0.000000 0.000000 0.000000 -0.000000 0.000000 0.000000 -0.000000 -0.000001 -0.000000 -0.000000 -0.000001 -0.000000 -0.000000 -0.000000 -0.000000 0.000000 
-0.546744 81.449219 0.928546 -7.678215 0.389965 -0.315205 0.000000 0.000000 0.000000 -5.656845 7.600459 4.117331 24.504636 7.861944 2.228290 -15.105149 0.954438 -5.563730 -0.000000 -0.000002 -0.000000 -0.000000 -0.000002 -0.000000 -0.000000 -0.000002 0.000001 -4.828277 -5.861543 -1.596951 24.838212 -9.843069 -0.464389 -17.159308 -0.674565 3.161491 -0.000000 -0.000000 -0.000000 -0.000000 -0.000000 -0.000000 0.000000 -0.000001 0.000000 1.278711 -0.138852 0.090408 2.535660 -0.290656 0.233643 2.535436 -0.292723 0.233807 4.758905 -0.461617 0.629266 5.298115 -1.345429 -0.652871 0.000000 -0.000000 -0.000000 0.000000 -0.000000 -0.000000 0.000000 -0.000000 -0.000000 1.523556 -15.096928 -0.601447 -28.627324 -19.462433 -63.839060 -0.000006 -19.240066 0.000005 21.110563 0.299117 -15.534850 1.206828 8.028102 3.102174 8.727300 25.167034 -2.925172 0.000005 -0.000002 -0.000001 -2.462089 -1.338342 -35.368700 0.958380 3.509276 -30.541495 0.000001 -0.000000 -0.000004 0.904584 3.421265 -31.154105 1.251961 3.963963 -35.043901 0.000001 0.000000 0.000002 4.094751 7.585397 -38.000799 0.473538 2.513780 -21.332965 -0.000002 -0.000001 0.000001 4.730857 8.108601 -40.018717 0.055349 -3.109761 -8.362751 -0.000002 -0.000002 0.000001 0.000000 -0.000001 0.000003 2.071499 10.057812 7.739160 -23.625184 51.628358 45.667068 -0.000003 9.460745 0.000010 -1.768380 2.589360 4.631774 -8.220300 -8.085785 -5.629702 12.516043 -27.837498 1.513540 -0.000001 0.000001 0.000000 0.148439 -2.224222 31.830430 0.854283 -3.344214 28.652090 -0.000000 0.000002 -0.000001 2.571854 -6.746854 26.591192 0.597772 -2.825290 23.888126 0.000001 0.000003 -0.000005 2.740659 -6.935658 27.469786 0.369146 -2.239528 18.717143 -0.000001 -0.000001 0.000005 2.958101 -7.444159 26.911299 0.630483 -2.897917 24.543212 -0.000000 -0.000001 -0.000002 0.000000 -0.000001 0.000001 -0.000000 0.000000 -0.000000 -0.000000 0.000000 -0.000000 -0.000000 0.000000 -0.000000 -0.000000 0.000000 -0.000000 -0.000000 0.000000 -0.000000 -0.000000 -0.000000 -0.000000 -0.000000 0.000000 -0.000000 -0.000000 0.000000 -0.000000 -0.000000 -0.000000 -0.000000 -0.000000 0.000000 -0.000000 -0.000000 0.000000 -0.000000 0.000000 0.000000 0.000000 
-0.568527 81.429955 1.123847 -7.746455 0.346643 -0.326473 0.000001 -0.000000 -0.000000 -5.437640 7.679153 4.177202 24.466173 7.866668 2.198894 -14.986810 0.954353 -5.608146 -0.000000 0.000001 -0.000000 -0.000000 0.000001 0.000000 0.000000 0.000002 -0.000001 -4.597972 -5.892536 -1.591962 24.783367 -9.764262 -0.460478 -17.031965 -0.670928 3.170602 -0.000000 -0.000000 0.000000 -0.000000 -0.000000 0.000000 -0.000000 0.000002 -0.000000 1.256062 -0.130718 0.094635 2.484691 -0.274420 0.239762 2.484480 -0.276418 0.239943 4.752596 -0.452510 0.625038 5.262726 -1.293616 -0.684323 0.000000 0.000000 -0.000000 0.000000 0.000000 -0.000000 0.000000 0.000000 -0.000000 1.525280 -15.048170 -0.540469 -28.194741 -19.041104 -63.944381 -0.000000 -18.816642 -0.000002 20.831578 0.188790 -15.394987 1.230999 8.027085 2.768080 8.810937 25.391300 -2.985114 0.000003 -0.000003 0.000001 -2.392996 -1.217053 -35.475842 0.955947 3.505163 -30.501627 0.000000 -0.000001 -0.000002 0.939291 3.478396 -31.111652 1.251982 3.964001 -35.044048 0.000001 0.000000 0.000000 4.126619 7.625601 -38.000796 0.473481 2.513640 -21.331548 -0.000003 0.000001 -0.000000 4.699994 8.081292 -39.948824 0.054850 -3.113177 -8.334092 0.000000 -0.000002 -0.000001 -0.000000 -0.000001 0.000001 2.080371 10.126804 7.750141 -23.453401 51.493551 45.514168 -0.000002 9.524225 -0.000005 -1.490879 2.571057 4.734399 -8.226824 -8.072502 -5.696183 12.511774 -27.828458 1.512371 0.000000 -0.000000 -0.000001 0.162879 -2.241793 31.725296 0.855558 -3.346597 28.674234 -0.000003 -0.000001 -0.000000 2.571077 -6.744256 26.598121 0.598386 -2.826703 23.900775 -0.000004 0.000001 -0.000004 2.737281 -6.927387 27.481971 0.369112 -2.239477 18.716735 -0.000000 0.000001 0.000001 2.931382 -7.394814 26.899069 0.632235 -2.901765 24.578086 -0.000003 0.000001 0.000000 -0.000002 -0.000000 -0.000000 0.000000 0.000000 0.000000 0.000000 0.000000 0.000000 0.000000 0.000000 0.000000 0.000000 0.000000 0.000000 0.000000 0.000000 0.000000 0.000000 0.000000 0.000000 0.000000 0.000000 0.000000 0.000000 0.000000 0.000000 0.000000 0.000000 0.000000 -0.000001 0.000000 0.000000 -0.000001 0.000000 0.000000 0.000001 -0.000000 -0.000000 
